<svg xmlns="http://www.w3.org/2000/svg" viewBox="0 0 46.965 46.965"><path d="M46.815 22.775c-.2-4.2-.2-8.4-.5-9.2-.3-.8-4.4-3.6-6.1-4.3-1.6-.7-8.6-4.3-10.6-5.3-2-1.1-5.9-3.8-6.5-3.8s-1.6.6-2.6 1.1-4.9 3.1-7.7 4.5c-2.8 1.5-6 3.5-9.3 5-3.4 1.5-3.2 1.7-3.4 2.3-.1.4.2 2.5.3 5.6.1 3.1-.3 9-.4 10.7-.1 1.6.3 2.6 1 3.6s3.6 2.5 6.8 4.3c3.2 1.8 8.4 5.5 11 7.4s3.2 1.8 4.3 2.1c1.1.3 7.9-3.8 13.3-7.1s10.3-6.3 10.4-6.9c.2-.5.2-5.8 0-10zm-1 7.3c-.2-.2-3.4-3.8-3.6-3.7-.2.2-.3.5-.3.7.1.1 3.4 3.5 3.5 3.8.1.2-.2.6-.4.5-.2-.1-3-2.9-3.4-2.9-.4-.1-.9.4-.5.7.3.3 3.1 2.6 3.1 2.8 0 .2-.7.9-.9.8-.2-.1-2.7-2.7-3.1-2.7s-.8.4-.6.5c.2.2 2.9 2.6 2.7 2.8-.1.2-.7 1-1 .7s-2.4-2.7-2.8-2.7-.7.4-.6.6c.2.2 2.5 2.4 2.5 2.6s-.7.5-.9.5c-.2-.1-2.3-2.6-2.6-2.6s-.7.3-.6.4 2.5 2.7 2.5 2.8-.6.6-.8.5c-.2-.2-2-2.6-2.6-2.6-.5 0-.7.3-.6.4s2.5 2.5 2.3 2.6c-.2.2-.8.5-1 .4-.2-.2-2.4-2.3-2.7-2.4-.3-.1-.7.4-.6.6.2.2 2.7 2.2 2.4 2.4-.3.2-1.2 1-1.5.8s-2.1-2.3-2.6-2.3-.9.3-.6.5c.3.3 2.3 2.1 2.1 2.3-.2.2-.5.6-.7.4-.2-.2-2.1-2-2.4-2s-.8.2-.6.4 2.5 1.8 2.3 2.2-1 .9-1.2.7c-.2-.2-2.2-2.2-2.5-2.2-.3.1-.6.3-.4.5s2.2 2 2.1 2.2-.6.7-.8.5c-.1-.2-2.5-2.6-2.7-2.5s-.6.7-.4.9c.3.2 2.5 1.8 2.3 2s-.8.8-1.1.6-2.1-1.9-2.4-1.9-.6.4-.3.7c.4.3 1.9 1.5 1.9 1.6s-.3.4-.6.3c-.3-.1-2-1.6-2.3-1.6s-.8.4-.6.6c.2.2 2 1.2 1.9 1.5s-.5.7-.8.5-8.7-5.3-11.4-6.9c-2.7-1.6-6.1-3.7-8.1-4.9-1.9-1.2-2.9-1.4-3.1-2.5s.2-5.9.3-8.6c.1-2.7-.1-4.9-.2-5.5-.1-.7-.2-2-.1-2.4.1-.7 1.5-1.3 4.4-2.6 2.8-1.3 11.9-6.6 13.4-7.5s3.5-2.1 4-2 5 3.3 8.2 4.6c3.1 1.3 9.7 4.5 10.7 5.2s1.5 1.1 1.5 1.2-.2.4.1.6c.4.2 2 1.6 2.1 1.8 0 .2.2 1.6.1 1.5s-1.8-2.2-2.2-2.2-.7.4-.5.7c.2.3 2.6 2.4 2.8 2.7.1.3.3 1 .1.9-.2-.2-1.9-2-2.1-2s-.5.2-.4.6 2.4 2.5 2.5 2.7.1 1.7-.1 1.6-1.9-2.4-2.1-2.3-.2.6-.2.6 2.2 2.6 2.3 2.9.3 2.3.1 2c-.2-.3-1.9-2.3-2.1-2.3s-.4.3-.3.6 2.3 2.7 2.4 2.9c.1.2.2 2.1 0 1.8-.1-.3-2.2-2.6-2.4-2.5s-.5.4-.3.7c.2.2 2.7 2.9 2.7 3.1.5.1.6 1.4.4 1.3zm-38.5-13.5c.6.3 5.4 3.5 5.9 3.8s1.8.1 3.3-.6 4.2-2 4.3-2.3.1-5.1 0-5.9 0-4-.3-4.1-6.3 3-8.1 4-6.2 3.3-6.4 3.5c-.3.5.7 1.3 1.3 1.6zm1.9-.7c.1-.2 4.9-2.9 6.6-4s3.6-2.2 3.7-1.9c.2.3.7 6.4.2 6.9-.5.4-5.3 2.8-6 2.4-.5-.3-4.8-2.5-4.5-3.4zm16.1 1.3c.1.3 5 2.6 5.4 2.7s1.1-.1 1.8-.4c.7-.3 7.1-3.7 7.8-4 .7-.3 1-.5 1.1-1.1 0-.6-1-1.4-3.1-2.6s-7.1-3.4-9.2-4.3-2.8-.7-3.2-.4c-.7.4-.5 1.9-.5 2.7-.1.9-.2 7.1-.1 7.4zm1.2-9.3c.1-.2 4.4 1.6 8.2 3.5 3.8 2 5.4 2.8 5.3 3.2s-4.5 2.4-6.4 3.3c-1.9.9-2.4 1.1-2.7 1-.2-.1-4.3-1.9-4.4-2.3-.2-.5 0-4.1-.1-5.2.1-1.2-.1-3.3.1-3.5zm1 13.4c-.3-.4-4-2.4-4.4-2.5-.5-.1-1.3.5-2.3 1.1s-2.4 1.5-2.3 1.8c.1.8 4 2.5 4.7 2.6s3.4-1.6 3.9-2c.3-.2.6-.6.4-1zm-4.4 1.8c-.4-.2-1.3-.8-1.3-.9-.1-.2 2.4-1.6 2.7-1.4.4.3 1.2.5 1.3.8 0 .2-2.3 1.7-2.7 1.5zm-4.7-16.7c.5-.4 3.5-1.8 4-2.2.6-.3 1.4.3 1.7.5.3.1.7-.1.8-.4.1-.3-1.1-.9-1.5-1.1s-.8-.2-1.5.1c-.7.3-4.4 2.3-4.6 2.5s0 .7.2.8c.2 0 .4.2.9-.2zm-13.4 7.2c.3-.3 0-.4-.4-.6s-2.4.7-2.6 1.1c-.2.3.2 2.2.5 2.3.3.2.7-.1.9-.4.2-.3-.1-1-.2-1.3 0-.4 1.5-.9 1.8-1.1zm1.8 10.9c.8-.5 2.2-1.1 2-1.5s-2.9-2.2-3.5-2.6-1.6.1-1.7.4c-.1.2 0 3.2 0 3.7s-.1 1.1.5 1.4c.7.2 1.8-.9 2.7-1.4zm-.9-2.1c.1-.2 1.2.6 1.1.8 0 .2-.9.9-1.2.7s0-1.3.1-1.5zm13.8 5.9c-.6-.3-6.2-3.3-6.6-3.3-.4-.1-8.9 4.5-8.9 4.7 0 .5 2.5 1.5 5.8 3.4 3.2 1.8 9.1 5.2 9.6 5.5s1.2.2 1.5-.2c.3-.3.1-7.9.1-8.6-.1-.5-.9-1.1-1.5-1.5zm.3 9.1c-.4-.1-8-4.4-9.2-5s-2.1-1.3-2.1-1.4c.1-.4 5.2-4.1 5.8-3.9.5.1 5.3 2.5 5.5 2.9.2.3.4 7.5 0 7.4zm11.5-12.5c-.7-.1-6.7 3-6.8 3.5-.1.4.6 7.5.6 7.8.1.2.4.7.9.8.5.1 1.7-.4 3.6-1.4s9.1-5.2 9.3-5.6c.3-.4.1-1.1-.1-1.3-.1-.3-6.8-3.7-7.5-3.8zm.2 8.5c-2.5 1.5-4.7 2.8-5.1 2.5s-.8-5.2-.8-5.6c0-.3 6.5-3.8 7.2-3.6.7.3 5.1 2.2 5.1 2.6.1.4-3.8 2.6-6.4 4.1zm9.9-15.2c-.4 0-5.8 3.3-5.8 3.5-.1 1.2 2.7 1.7 3.9 2.2 1.2.5 2.4 1 2.7.7s.1-3.3.1-4.8c0-1.7-.5-1.6-.9-1.6zm-.1 5.2c-.4-.1-3.6-1.5-3.9-1.7s3.5-2.3 3.8-2.1c.3.3.4 3.9.1 3.8z"/></svg>