<svg xmlns="http://www.w3.org/2000/svg" viewBox="0 0 46.617 46.617"><path d="M46.572 30.308c.1-2.3-.5-19.9-.6-21.5s-3-2.1-4.5-2.1-5.1.2-5.8.2-7.8-.1-12.7 0c-5 .1-16.1.2-18.1.2s-4.1.3-4.4.6c-1 1.4-.1 10.7-.1 17.1s.3 9.9.6 10.8 1.4 3.3 1.8 3.7c.4.4 1.2.3 4.1.4 3 .1 3.2.2 10.2.2s14.2-.2 20.4-.4 6.7-.3 8.2-1.3c1.4-1.2.8-5.6.9-7.9zm-1.1-8.6c-.2-.2-1.6-2.3-1.8-2.3s-.2.6-.2.8c.1.3 1.9 2.3 1.9 2.4 0 .2.1 1.5.1 1.4-.1-.1-1.5-2.6-1.8-2.5-.3.2-.3.7-.3.9s2.1 2.4 2.1 2.6c0 .3.1 1.5 0 1.3-.1-.3-1.7-2.8-2-2.6s-.3.6-.2.9c.1.3 2.1 2.5 2.1 2.8s.2 2 0 1.9-1.5-2.7-2.1-2.9c-.6-.1-.7.3-.4.6.3.2 1.3 2 1.5 2.5.3.5 1 1.2 1 1.3 0 .2.1 2.3-.1 2.2s-1.2-2.7-1.9-3.5-1-1.2-1.2-1-.1.6.1.9c.2.3 2.1 3.3 2.2 3.6.2.3.3.5.2.7s-.3.4-.3.6-.1.2-.1.1c0-.2-2.4-3.7-2.8-4.3s-.5-.7-.8-.6c-.4.2 0 .7.2.9.1.2 3.2 4.5 3.2 4.9s-.4.7-.6.6-3.1-4.8-3.5-5.5c-.4-.6-.6-.6-.8-.4-.2.3.3.8.7 1.4.4.7 2.3 3.8 2.6 4.1s.3.7.3.7-.8.3-1 .1-3.5-5.6-3.7-5.6-.5.4-.5.5c.1.1 3.5 5.1 3.2 5.2-.3 0-1.2.2-1.4 0s-2.4-4.3-2.8-4.3c-.4 0-.6.6-.6.7s2.5 3.5 2.3 3.6-.7.3-1 .1-2.3-4.2-2.5-4.3-.9.3-.7.5 2.6 4 2.2 4c-.4 0-.9.1-1-.1-.2-.2-2.2-3.7-2.5-3.7-.2-.1-.7.1-.6.4s2.7 3.5 2.3 3.5-1.4.2-1.6 0c-.2-.3-1.9-3.4-2.3-3.5-.3-.1-.6.3-.5.5s2 3 1.7 3c-.2 0-1.2.1-1.3-.1-.2-.1-1.5-3-1.8-3s-.6.3-.6.5c.1.2 1.6 2.6 1.3 2.6-.3.1-.8.1-1.1-.1-.2-.2-1.7-2.7-2-2.7-.3-.1-.8.2-.7.4s1.6 2.4 1.4 2.4c-.3 0-1.2.1-1.3 0s-1.7-2.2-1.9-2.3-.7.1-.6.3c.2.2 1.6 1.9 1.3 1.9-.3.1-7 .3-11.4.4-4.4.1-6.9.1-8.6-.2s-2.3-.8-2.7-1.2c-.4-.3-.7-3.7-.7-7.4-.1-3.6-.3-12-.4-14.1-.1-2.1-.2-4.7.1-5.2.2-.3 1.9-.4 7.6-.6 5.6-.3 11.3-.2 18.7-.3s11.2-.2 13.1-.1 3.9.4 4.3 1.1c.4.7.5 6.1.4 6-.2-.1-.9-1-1.1-.8s-.4.5-.2.7 1.3 1.1 1.4 1.4c0 .3.1.8 0 .6s-.9-1.2-1.1-.9c-.2.2-.4.6-.2.8s1.3 1.4 1.4 1.7c.1.3 0 .9-.1.7s-1.3-1.9-1.6-1.7c-.3.3-.2.9-.1 1 .1.1 1.8 1.7 1.8 1.8s.6 1.5.4 1.3zm-35.9-8.3c.6.6 5.1 4.3 8.3 6.7s4.1 2.7 6.4 2.6c2.3-.1 3.7-1 5.8-2.3 2.1-1.2 8-7 8.8-8.1.8-1 .3-1.2-.3-1.4-.5-.2-2.6-.2-9.9-.1-7.3.2-15.8.2-17.5.3s-2.8.2-2.9.4c-.3.6.8 1.3 1.3 1.9zm14.5.2c5.5 0 11.8-.3 12 0s-4 4.3-6.6 5.9c-2.6 1.6-3.8 2.3-6.1 2s-6.7-4.1-8.3-5.3-2.7-2.1-2.6-2.3c0-.2 6.1-.3 11.6-.3zm17.5-.7c-.7-.1-3 2.8-4.5 4.7-1.5 1.8-3 3.8-3.1 3.9-.2.5.4.6 1.8 1.9 1.5 1.3 3.3 3.9 4 4.8.7.9 1.2 1.1 1.7.7.5-.4.4-.8.5-2.5s.2-7.8.3-10.3 0-3.1-.7-3.2zm-.5 14.7c-.3-.2-2.4-3.2-2.9-3.6-.5-.5-1.4-1.1-1.4-1.5 0-.2 4.4-5.5 4.6-5.3.1.1 0 10.5-.3 10.4zm-6.6-1.4c-1.1-1.3-1.8-2.6-2.6-2.6s-2.3 1-3.6 1.8c-1.3.9-2.4 1.4-3.5 1.4s-3.8-1.4-4.1-1.6c-.4-.3-2.2-.9-2.6-.8-.9.1-5.3 6-5.7 6.5s.6 1.4 1.2 1.5 2.3 0 10.2-.3c8-.3 11.8-.6 12.5-.8s.7-.8.6-1.3c-.2-.6-1.3-2.5-2.4-3.8zm1.2 4c-.2.2-5.6.6-12.5.9-6.9.3-8 .2-7.9.1s3.6-4.2 4-4.2c.2 0 3.9 1.8 5.5 1.8 1.6.1 3.5-.7 5.1-1.8 1.6-1.2 2.4-1.8 2.7-1.7.3 0 2.3 2.9 2.7 3.7.4.6.5 1 .4 1.2zm-23.5-11.2c-1.6-1.6-5.7-5.1-6.1-5-1.9 0-1.3 3-1.2 6.8s.7 8.8 1 10.1 1.3 1.3 2 1.1c.8-.2 1.4-1.2 2.9-3.2 1.5-1.9 3.8-5.1 4-6.4.2-1.4-1-1.8-2.6-3.4zm-3.2 10.5c-.7.8-.6.9-.8.8-.2 0 0-7.6-.1-9.1s-.2-3-.1-3.3c.1-.2 2.4 1.8 3.6 2.8s1.9 1.6 1.9 1.9c.1.3-3.8 6-4.5 6.9zm16.5-5.9c-1.2.2-2.6-.2-2.9-.3-.5-.1-.6.6-.3.9.3.3 1 .5 2.9.5s3.1-.8 3.3-1.1-.1-.8-.5-.9c-.3-.1-1.3.7-2.5.9zm-21 11.1c-.3-.3 0-1.9-.2-2.2s-.9-.3-1 0c-.2.4-.1 1.7.1 2.4s.7 1.1 1.4 1 .7-.8.6-1c0-.1-.6 0-.9-.2zm-1-23.5c.2-.6 1.1-.6 1.4-.7.3-.2.3-.1.3-.4-.1-.3-.4-.7-1.4-.5s-1.5 1.1-1.5 1.9 0 2.5.2 2.6c.4.2.8.2.9 0 .2-.2-.1-2.3.1-2.9zm40.2-.8c.2-.2.3-.4-.3-1.3s-2-1.2-2.3-1.1c-.8.4-.4 1.3.4 1.3s1.1.9 1.3 1.2.7.2.9-.1z"/></svg>